<?xml version="1.0" standalone="no"?>
<!DOCTYPE svg PUBLIC "-//W3C//DTD SVG 20010904//EN"
 "http://www.w3.org/TR/2001/REC-SVG-20010904/DTD/svg10.dtd">
<svg version="1.0" xmlns="http://www.w3.org/2000/svg"
 width="1024.000000pt" height="1024.000000pt" viewBox="0 0 1024.000000 1024.000000"
 preserveAspectRatio="xMidYMid meet">
<metadata>
Created by potrace 1.14, written by Peter Selinger 2001-2017
</metadata>
<g transform="translate(0.000000,1024.000000) scale(0.100000,-0.100000)"
fill="#000000" stroke="none">
<path d="M4990 10229 c-14 -6 -35 -13 -47 -15 -39 -7 -136 -70 -188 -121 -59
-58 -137 -142 -400 -431 -22 -24 -56 -61 -75 -81 -19 -21 -78 -84 -130 -141
-146 -159 -149 -162 -244 -265 -49 -53 -98 -106 -109 -118 -10 -12 -56 -62
-102 -112 -154 -165 -176 -190 -233 -253 -31 -35 -77 -85 -102 -111 -25 -26
-83 -90 -130 -141 -47 -51 -104 -113 -127 -137 -24 -24 -43 -45 -43 -47 0 -2
-21 -26 -47 -54 -27 -27 -79 -84 -118 -126 -38 -43 -90 -99 -115 -125 -25 -26
-79 -85 -120 -130 -41 -46 -92 -102 -114 -124 -21 -23 -73 -80 -115 -125 -42
-46 -92 -101 -111 -121 -19 -21 -73 -79 -120 -130 -47 -51 -101 -110 -120
-131 -121 -131 -151 -195 -154 -332 -1 -49 2 -88 7 -88 5 0 7 -6 4 -12 -6 -18
36 -110 70 -155 92 -123 243 -201 385 -199 27 1 48 -1 48 -4 0 -3 40 -4 89 -3
50 2 92 -1 95 -5 2 -4 -13 -28 -36 -52 -22 -25 -49 -58 -61 -73 -12 -15 -35
-43 -52 -61 -16 -18 -48 -55 -70 -82 -22 -26 -47 -55 -55 -64 -15 -16 -39 -44
-115 -135 -22 -27 -47 -56 -55 -65 -8 -8 -35 -40 -60 -70 -24 -30 -51 -62 -60
-70 -8 -8 -32 -35 -52 -60 -20 -25 -47 -57 -60 -71 -45 -52 -113 -132 -128
-151 -8 -11 -30 -35 -48 -54 -17 -19 -32 -37 -32 -40 0 -3 -10 -15 -23 -28
-12 -12 -42 -46 -67 -76 -25 -29 -49 -58 -55 -64 -9 -10 -66 -78 -130 -155
-11 -13 -32 -37 -46 -53 -25 -28 -114 -188 -105 -188 3 0 0 -15 -5 -32 -17
-55 -19 -70 -20 -138 -1 -70 18 -187 34 -207 5 -7 7 -13 4 -13 -9 0 63 -134
77 -142 6 -4 7 -8 3 -8 -8 0 96 -104 129 -130 68 -51 190 -97 280 -105 90 -7
320 -9 331 -2 5 3 15 2 22 -2 10 -7 9 -14 -7 -32 -12 -13 -29 -33 -39 -45 -22
-25 -101 -116 -203 -234 -92 -106 -139 -159 -199 -229 -25 -30 -58 -67 -74
-83 -15 -16 -27 -31 -27 -34 0 -3 -10 -15 -22 -28 -27 -27 -131 -145 -138
-156 -7 -12 -111 -129 -137 -156 -13 -13 -23 -25 -23 -28 0 -3 -15 -21 -32
-40 -18 -19 -51 -56 -73 -82 -22 -26 -48 -56 -58 -68 -11 -12 -40 -45 -65 -75
-26 -30 -58 -66 -72 -81 -14 -15 -41 -47 -60 -70 -19 -23 -44 -52 -55 -64 -68
-76 -84 -96 -115 -141 -19 -27 -39 -53 -45 -57 -5 -4 -6 -8 -2 -8 5 0 0 -12
-11 -27 -10 -16 -23 -41 -27 -58 -10 -35 -10 -35 -18 -55 -29 -73 -31 -272 -3
-372 14 -52 39 -108 77 -178 26 -48 93 -125 144 -169 51 -42 175 -117 175
-105 0 4 6 2 12 -4 7 -6 16 -11 21 -11 4 -1 8 -1 10 -2 1 0 9 -2 17 -4 8 -2
26 -7 40 -10 14 -3 56 -8 94 -10 37 -2 70 -6 73 -9 2 -2 18 0 34 4 16 5 31 5
34 0 3 -5 19 -5 35 0 17 5 30 6 30 2 0 -4 16 -7 35 -7 19 0 35 3 35 7 0 4 12
3 28 -1 15 -5 37 -5 49 0 12 4 25 4 28 -1 3 -5 18 -5 35 0 17 5 30 6 30 2 0
-4 16 -7 35 -7 19 0 35 3 35 7 0 4 12 3 28 -1 15 -5 37 -5 49 0 12 4 25 4 28
-1 3 -5 18 -5 35 0 17 5 30 6 30 2 0 -4 16 -7 35 -7 19 0 35 3 35 7 0 4 12 3
28 -1 15 -5 37 -5 49 0 12 4 25 4 28 -1 3 -5 18 -5 35 0 17 5 30 6 30 2 0 -4
16 -7 35 -7 19 0 35 3 35 7 0 4 12 3 28 -1 15 -5 37 -5 49 0 12 4 25 4 28 -1
3 -5 18 -5 35 0 17 5 30 6 30 2 0 -4 16 -7 35 -7 19 0 35 3 35 7 0 4 12 3 28
-1 15 -5 37 -5 49 0 12 4 25 4 28 -1 3 -5 18 -5 35 0 17 5 30 6 30 2 0 -4 16
-7 35 -7 19 0 35 3 35 7 0 4 12 3 28 -1 15 -5 37 -5 49 0 12 4 25 4 28 -1 3
-5 18 -5 35 0 17 5 30 6 30 2 0 -4 16 -7 35 -7 19 0 35 3 35 7 0 4 12 3 28 -1
15 -5 37 -5 49 0 12 4 25 4 28 -1 3 -5 18 -5 35 0 17 5 30 6 30 2 0 -4 16 -7
35 -7 19 0 35 3 35 7 0 4 12 3 28 -1 15 -5 37 -5 49 0 12 4 25 4 28 -1 3 -5
18 -5 35 0 17 5 30 6 30 2 0 -4 16 -7 35 -7 19 0 35 3 35 7 0 4 6 5 14 2 21
-8 106 -10 106 -2 0 4 12 3 28 -1 15 -5 37 -5 49 0 12 4 25 4 28 -1 3 -5 18
-5 35 0 17 5 30 6 30 2 0 -4 35 -6 77 -4 91 3 79 3 171 0 39 -2 72 0 72 4 0 4
13 3 29 -2 15 -4 34 -4 41 0 7 4 25 4 40 0 15 -4 33 -4 41 0 7 5 17 6 22 3 13
-8 147 -9 147 -1 0 4 13 3 28 -2 16 -4 36 -4 45 1 15 9 35 -6 24 -18 -3 -3 -2
-15 3 -27 4 -13 5 -28 0 -35 -4 -7 -4 -28 0 -47 4 -19 4 -36 0 -39 -4 -3 -4
-20 0 -39 4 -19 4 -40 0 -47 -5 -7 -5 -22 0 -34 5 -12 5 -28 0 -35 -4 -7 -4
-25 0 -40 4 -15 4 -33 0 -40 -5 -7 -5 -23 0 -35 5 -12 5 -27 0 -34 -4 -7 -4
-28 0 -47 5 -19 4 -37 -1 -40 -5 -3 -7 -9 -4 -14 3 -4 7 -48 9 -97 2 -48 9
-108 16 -132 16 -61 71 -181 81 -181 5 0 9 -6 9 -12 0 -7 18 -33 40 -58 22
-24 40 -49 40 -54 0 -5 3 -7 6 -4 3 3 22 -9 42 -28 59 -54 183 -113 277 -132
36 -7 222 -8 250 0 153 38 253 94 341 190 51 55 104 132 104 151 0 8 7 20 15
27 8 6 14 15 13 18 -1 4 6 32 15 62 10 31 20 84 22 120 3 35 7 66 9 68 3 2 1
16 -3 30 -5 15 -5 36 -1 47 4 11 4 29 0 41 -5 11 -5 27 0 34 5 7 5 23 0 34 -4
12 -4 30 0 41 4 11 4 31 0 45 -4 14 -4 37 0 51 4 15 4 32 0 39 -5 8 -5 23 0
35 5 12 5 27 0 34 -4 7 -4 28 0 46 4 18 4 38 0 45 -4 6 -4 29 0 51 4 22 3 39
-2 39 -5 0 -7 4 -4 9 8 12 56 20 56 10 0 -5 11 -5 23 0 13 5 30 5 37 1 8 -5
18 -6 24 -3 15 10 86 9 86 0 0 -4 5 -5 12 -1 17 11 78 11 78 1 0 -4 5 -5 12
-1 16 10 118 11 118 1 0 -5 5 -5 12 -1 19 12 128 11 128 -1 0 -7 3 -7 8 0 7
10 429 14 2019 18 326 1 593 4 593 7 0 3 15 5 32 4 48 -1 221 46 238 65 3 4
22 15 43 27 143 78 272 256 311 429 19 87 15 248 -9 325 -28 88 -89 200 -140
256 -5 6 -29 33 -52 61 -24 27 -53 61 -65 75 -13 14 -45 51 -73 83 -27 32 -71
82 -97 109 -26 28 -48 54 -48 58 0 4 -15 22 -33 40 -17 18 -57 62 -87 98 -30
36 -59 70 -65 76 -5 6 -32 37 -60 69 -27 32 -54 63 -60 69 -5 6 -37 43 -70 81
-33 39 -64 75 -70 81 -5 6 -35 40 -65 75 -30 35 -64 73 -75 85 -11 12 -38 43
-60 70 -22 26 -52 61 -67 78 -15 17 -36 42 -48 56 -70 81 -128 147 -147 167
-12 13 -20 23 -18 23 2 0 -11 15 -28 34 -18 18 -46 50 -63 69 l-30 36 170 1
c191 1 267 7 294 23 6 5 12 6 12 3 0 -10 109 42 162 78 105 70 179 169 233
311 25 65 35 196 21 275 -3 19 -9 50 -12 68 -4 18 -10 35 -15 38 -5 3 -9 12
-9 21 0 8 -15 41 -34 72 -31 51 -49 76 -88 121 -7 8 -42 48 -77 90 -35 41 -87
101 -115 134 -28 32 -58 67 -66 78 -8 11 -24 30 -35 42 -11 12 -56 64 -99 116
-44 52 -87 102 -95 111 -9 9 -32 36 -51 60 -19 24 -45 54 -57 67 -11 12 -36
41 -55 64 -18 23 -40 49 -49 57 -8 9 -39 45 -68 81 -29 36 -58 70 -64 75 -7 6
-30 33 -52 60 -22 28 -44 55 -50 61 -10 11 -28 32 -166 194 -35 41 -67 77 -71
78 -5 2 -8 7 -8 12 0 5 37 8 83 8 46 -1 88 2 94 5 7 4 14 3 18 -3 4 -6 10 -8
15 -5 4 3 34 7 66 10 62 7 163 38 204 64 117 75 209 203 225 316 9 64 9 61 2
121 -8 64 -28 121 -60 170 -29 44 -43 61 -171 199 -51 55 -115 124 -142 154
-27 30 -62 69 -79 86 -44 47 -207 225 -239 260 -16 17 -69 74 -119 128 -50 54
-103 113 -118 130 -15 18 -54 60 -86 93 -32 34 -96 103 -143 154 -47 51 -105
115 -130 141 -25 27 -58 63 -75 82 -16 18 -61 67 -100 109 -38 41 -108 117
-155 168 -117 127 -213 232 -340 369 -19 21 -73 80 -120 131 -47 51 -101 109
-120 130 -19 21 -75 82 -125 135 -141 154 -198 215 -230 250 -16 18 -73 79
-125 136 -145 158 -181 193 -230 225 -43 28 -58 36 -125 64 -40 17 -262 23
-295 9z"/>
</g>
</svg>
